<svg xmlns="http://www.w3.org/2000/svg" data-name="Layer 1" viewBox="0 0 32 32"><circle cx="25" cy="13" r="6.5" fill="#fbde53"/><path fill="#8c8890" d="M25.5,16.5h-2a.5.5,0,0,1,0-1h2A.5.5,0,0,0,26,15V14a.5.5,0,0,0-.5-.5h-1A1.5,1.5,0,0,1,23,12V11a1.5,1.5,0,0,1,1.5-1.5h2a.5.5,0,0,1,0,1h-2a.5.5,0,0,0-.5.5v1a.5.5,0,0,0,.5.5h1A1.5,1.5,0,0,1,27,14v1A1.5,1.5,0,0,1,25.5,16.5Z"/><path fill="#8c8890" d="M25 10a.5.5 0 0 1-.5-.5v-1a.5.5 0 0 1 1 0v1A.5.5 0 0 1 25 10zM25 18a.5.5 0 0 1-.5-.5v-1a.5.5 0 0 1 1 0v1A.5.5 0 0 1 25 18z"/><path fill="#e23342" d="M8.5,27.5h-2v-11h2a1,1,0,0,1,1,1v9A1,1,0,0,1,8.5,27.5Z"/><path fill="#ffd9aa" d="M31.5,24.7a1.1,1.1,0,0,1-.76,1.05L21,29a5.021,5.021,0,0,1-3.02.05L9.5,26.5v-9l7.86,2.36a3,3,0,0,1,2.14,2.87V24.5l.49-.04L30.3,23.6h.09A1.105,1.105,0,0,1,31.5,24.7Z"/><path fill="#fcc37a" d="M19.5,25l-5.19-2.04a.5.5,0,1,1,.38-.92l4.81,1.92V25Z"/><rect width="6" height="11" x=".5" y="16.5" fill="#ed456a"/></svg>